<?xml version="1.0" standalone="no"?>
<!DOCTYPE svg PUBLIC "-//W3C//DTD SVG 20010904//EN"
 "http://www.w3.org/TR/2001/REC-SVG-20010904/DTD/svg10.dtd">
<svg version="1.0" xmlns="http://www.w3.org/2000/svg"
 width="1500.000000pt" height="1500.000000pt" viewBox="0 0 1500.000000 1500.000000"
 preserveAspectRatio="xMidYMid meet">
<metadata>
Created by potrace 1.11, written by Peter Selinger 2001-2013
</metadata>
<g transform="translate(0.000000,1500.000000) scale(0.100000,-0.100000)"
fill="#000000" stroke="none">
<path d="M7285 12200 c-3 -5 -13 -36 -21 -67 -25 -95 -102 -238 -120 -221 -2
3 16 60 41 126 25 67 45 131 45 143 0 21 -3 22 -61 15 -34 -3 -79 -6 -99 -6
l-37 0 13 -62 c7 -34 11 -64 9 -66 -2 -2 -14 12 -27 32 -25 40 -34 42 -62 21
-29 -22 -69 -18 -112 11 -27 19 -51 26 -80 26 -55 -1 -234 -40 -260 -57 -12
-8 -31 -11 -42 -8 -12 3 -44 0 -72 -7 l-50 -12 0 -203 0 -202 91 -87 c88 -83
92 -86 113 -71 70 51 64 49 91 31 28 -18 32 -50 14 -125 l-10 -44 119 -119
c66 -65 122 -118 126 -118 3 0 6 11 6 25 0 14 5 25 10 25 6 0 10 -6 10 -13 0
-7 17 -49 38 -93 32 -65 40 -94 45 -164 6 -77 50 -277 64 -290 6 -6 -2 59 -22
176 -44 250 -62 428 -64 645 l-2 157 33 6 c18 3 65 9 103 12 39 4 77 8 85 10
8 1 43 3 78 3 l62 1 0 290 0 290 -24 0 c-14 0 -28 -4 -31 -10z"/>
<path d="M7660 11920 c0 -259 2 -291 16 -297 18 -7 384 -8 722 -3 200 3 204 3
233 27 l29 25 0 198 0 198 -27 5 c-16 3 -80 17 -143 30 -128 28 -140 30 -325
57 -143 20 -215 28 -320 35 -38 2 -96 7 -127 11 l-58 6 0 -292z"/>
<path d="M6898 12172 c-31 -4 -39 -22 -10 -23 9 0 26 -2 37 -4 20 -4 45 11 45
26 0 8 -7 8 -72 1z"/>
<path d="M5977 11959 c-9 -6 -17 -17 -17 -25 0 -12 -7 -14 -31 -9 -17 4 -44 2
-62 -6 -82 -32 -96 -41 -102 -70 -8 -35 -48 -69 -82 -69 -13 0 -37 7 -53 15
-26 14 -33 13 -65 -2 -32 -15 -35 -20 -36 -62 0 -25 -2 -159 -4 -297 l-4 -251
409 -406 c225 -223 423 -411 440 -418 17 -8 30 -21 30 -32 0 -10 20 -40 45
-66 25 -27 50 -64 55 -82 6 -19 10 -96 10 -171 l0 -137 33 18 c59 35 260 84
300 73 4 -1 7 21 7 48 0 49 -2 52 -65 112 -102 96 -100 91 -106 483 -2 94 -5
177 -7 186 -2 8 -19 21 -38 28 -39 14 -45 31 -11 31 13 0 32 6 42 14 19 14 18
16 -18 50 -21 20 -45 36 -52 36 -8 0 -16 9 -20 19 -3 11 -26 41 -50 66 -45 48
-69 54 -89 23 -8 -14 -5 -23 16 -45 34 -37 68 -106 68 -138 0 -34 -21 -74 -54
-102 -24 -21 -26 -28 -26 -113 0 -53 -4 -90 -10 -90 -5 0 -11 10 -11 23 -1 12
-3 36 -5 52 -12 111 -15 116 -73 134 -38 11 -101 60 -101 78 0 23 45 76 95
113 50 37 69 70 35 62 -8 -2 -38 -10 -69 -18 -63 -16 -141 -19 -141 -4 0 5 39
21 88 36 129 40 142 48 142 89 0 31 -14 49 -134 172 -177 182 -195 202 -211
239 -10 23 -15 82 -16 210 -2 213 -6 228 -52 203z"/>
<path d="M8986 11961 c-2 -3 -4 -82 -5 -175 l-3 -168 39 6 c21 3 90 8 153 12
63 3 121 7 130 9 8 1 52 6 98 10 l82 7 0 58 c0 57 0 57 -37 72 -21 9 -96 39
-167 68 -164 67 -285 109 -290 101z"/>
<path d="M5677 11847 c-15 -6 -26 -16 -24 -21 7 -20 67 3 67 25 0 11 -7 10
-43 -4z"/>
<path d="M9419 11626 c-5 -4 -60 -11 -264 -31 -178 -17 -175 -17 -187 -39 -18
-34 -75 -95 -362 -384 l-271 -274 305 6 c168 4 366 9 440 12 l135 5 132 132
133 132 0 223 0 222 -28 0 c-16 0 -31 -2 -33 -4z"/>
<path d="M9800 11350 c0 -142 -4 -270 -9 -283 -5 -13 -35 -52 -67 -86 -31 -34
-55 -63 -53 -65 2 -2 47 -7 99 -11 52 -4 97 -9 99 -11 2 -2 -31 -5 -75 -5
-180 -3 -114 45 -575 -416 l-409 -408 1 -136 c0 -75 5 -142 9 -149 15 -24 68
19 267 211 108 104 133 123 133 98 0 -15 -30 -52 -118 -144 l-76 -79 30 -8
c34 -9 61 -33 200 -169 56 -54 103 -99 106 -99 3 0 24 30 48 66 65 101 177
207 263 248 146 71 341 82 587 31 160 -32 206 -58 63 -35 -43 6 -89 14 -103
16 -14 2 -104 4 -200 4 -218 1 -284 -14 -394 -89 -53 -36 -134 -121 -186 -198
l-52 -74 73 -74 74 -73 190 -7 c278 -10 393 -13 550 -15 77 -1 156 -5 175 -9
33 -7 34 -7 10 -14 -14 -4 -215 -6 -448 -4 -232 1 -422 0 -422 -2 0 -2 50 -54
110 -115 61 -62 121 -127 135 -146 54 -73 42 -139 -42 -230 l-55 -60 164 0
164 0 416 419 c229 230 423 432 432 448 15 31 14 90 -4 123 -5 10 -21 21 -35
24 -16 4 -25 13 -25 27 0 16 5 20 27 17 21 -2 28 2 31 17 12 79 26 86 43 20 6
-25 16 -48 21 -51 5 -3 2 -14 -8 -25 -12 -13 -15 -27 -10 -53 11 -58 31 -57
65 2 5 10 43 15 127 19 65 3 124 10 131 15 14 11 39 115 30 124 -3 3 -22 1
-42 -6 -53 -18 -69 2 -24 30 50 30 78 35 96 17 19 -18 21 -94 4 -125 -26 -48
-20 -50 120 -47 72 2 133 5 135 8 10 10 -260 428 -330 512 l-25 30 -1 -86 c0
-106 -20 -175 -62 -218 -29 -29 -37 -32 -72 -28 -21 3 -48 15 -60 26 l-20 21
58 -2 c48 -2 61 1 72 17 27 36 47 129 48 215 1 102 -12 129 -130 265 -91 106
-392 408 -483 486 -35 30 -69 59 -76 66 -7 6 -75 60 -151 119 -146 112 -329
236 -476 322 l-88 52 0 -260z"/>
<path d="M5068 11531 c-138 -82 -208 -127 -308 -200 -110 -81 -260 -199 -302
-239 l-38 -36 60 -28 c33 -15 60 -31 60 -36 0 -12 -60 -54 -221 -155 -286
-179 -433 -286 -417 -303 4 -3 109 -7 235 -8 237 -3 260 -5 357 -37 73 -23 76
-23 76 -1 1 16 1 16 11 -1 19 -32 -3 -43 -58 -29 -82 21 -91 22 -379 28 l-281
6 -51 -65 c-29 -36 -52 -67 -52 -69 0 -3 10 -4 21 -4 27 1 58 -39 65 -85 3
-20 0 -62 -6 -95 -15 -67 -18 -62 -40 61 -7 39 -15 75 -17 82 -9 24 -35 -1
-60 -58 -15 -33 -29 -59 -32 -60 -33 -4 -48 -12 -71 -36 -29 -29 -210 -317
-217 -343 -3 -13 23 -15 199 -18 112 -2 221 -5 243 -7 22 -1 55 -3 72 -4 26
-1 48 -16 107 -71 l74 -71 46 56 c25 31 46 60 46 63 0 4 14 22 31 40 35 38 60
31 39 -9 -13 -25 -67 -95 -107 -139 -13 -14 -23 -29 -23 -34 0 -5 181 -191
403 -413 l402 -403 165 0 164 0 -51 53 c-28 28 -56 63 -63 76 -17 34 -14 118
6 149 21 35 710 723 746 746 67 43 132 38 200 -15 20 -16 39 -26 41 -21 3 4 8
72 11 152 l6 145 -428 427 -429 428 -219 -1 c-384 -2 -391 -2 -372 18 15 14
50 17 275 20 142 2 259 5 260 7 2 1 -6 20 -17 41 -17 33 -20 59 -20 167 0 70
-3 128 -6 128 -3 0 -14 -10 -23 -22 -21 -25 -51 -19 -51 12 0 28 -9 26 -74
-21 -35 -25 -54 -45 -49 -52 4 -7 20 -32 35 -56 28 -45 36 -81 19 -81 -14 0
-39 28 -56 61 -9 16 -19 29 -23 28 -4 0 -24 -22 -45 -50 -20 -27 -44 -49 -52
-49 -28 0 -13 41 37 98 l28 33 -55 52 c-48 46 -68 77 -49 77 3 0 33 -20 67
-45 l60 -46 36 35 c20 19 53 42 74 51 28 11 37 21 37 39 0 13 9 34 20 47 l19
24 1 -37 c0 -45 12 -49 30 -10 19 38 24 182 6 182 -7 0 -64 -31 -128 -69z"/>
<path d="M7101 11576 l-84 -8 6 -212 c4 -116 9 -222 11 -236 3 -14 7 -41 10
-60 3 -19 12 -82 21 -140 19 -128 62 -429 69 -487 3 -24 3 -50 0 -58 -15 -38
-34 -7 -75 119 -24 74 -46 133 -48 131 -2 -3 -5 -61 -7 -130 l-4 -125 36 -40
36 -40 134 0 135 0 -1 253 c-2 299 -4 320 -45 328 l-30 6 33 13 c17 6 32 13
32 13 1 1 3 28 7 60 l5 57 -80 0 c-57 0 -83 4 -92 15 -28 33 24 88 115 122 42
15 51 23 53 46 3 22 -6 37 -41 70 -49 46 -71 81 -63 102 2 7 22 18 43 25 21 7
42 16 46 20 4 4 10 44 13 89 l5 82 -78 -3 c-43 -2 -116 -7 -162 -12z"/>
<path d="M7660 11246 c0 -227 3 -337 11 -341 6 -4 82 -9 170 -12 l159 -6 0 46
c0 59 14 94 52 134 25 26 29 36 23 61 -14 65 -49 64 -96 -4 -29 -43 -59 -58
-59 -31 0 16 48 85 73 105 15 13 14 17 -8 50 -14 20 -25 46 -25 56 0 17 6 14
38 -17 21 -20 42 -37 48 -37 6 0 25 16 44 35 35 36 93 69 112 63 7 -3 -20 -31
-59 -64 -75 -62 -75 -62 -34 -114 l20 -25 217 218 218 217 -452 0 -452 0 0
-334z"/>
<path d="M6590 11485 c-19 -21 -22 -30 -14 -43 6 -9 19 -18 28 -20 13 -3 16 5
16 42 0 25 -1 46 -3 46 -2 0 -14 -11 -27 -25z"/>
<path d="M7291 11361 l-25 -7 28 -22 c37 -29 48 -28 44 5 -3 30 -12 34 -47 24z"/>
<path d="M7267 11104 c-26 -14 -45 -29 -42 -34 4 -6 31 -10 61 -10 l55 0 -3
32 c-2 17 -7 33 -13 34 -5 2 -32 -8 -58 -22z"/>
<path d="M4293 10946 c-123 -114 -215 -206 -205 -206 14 0 392 237 392 245 0
3 -88 45 -93 45 -2 0 -44 -38 -94 -84z"/>
<path d="M6435 10926 c-7 -46 1 -102 15 -111 13 -8 32 70 26 105 -10 64 -32
67 -41 6z"/>
<path d="M6337 10927 c-42 -24 -57 -58 -36 -84 17 -20 79 -47 88 -38 9 10 5
125 -5 135 -5 5 -26 -1 -47 -13z"/>
<path d="M8657 10864 c-1 -1 -74 -4 -161 -8 -88 -3 -162 -9 -165 -12 -3 -3 -7
-119 -9 -257 -3 -374 1 -356 -117 -478 l-55 -57 0 -176 c0 -117 4 -176 11
-176 5 0 80 -28 165 -61 85 -34 157 -60 159 -57 8 8 -32 114 -67 180 -40 76
-94 136 -109 121 -6 -6 -12 -37 -15 -69 -7 -85 -13 -104 -28 -104 -21 0 -26
25 -21 93 13 156 20 166 80 126 53 -36 98 -88 126 -146 11 -24 25 -45 29 -48
5 -3 10 95 12 218 l3 224 27 34 c49 63 78 92 361 377 l282 284 -253 -4 c-140
-2 -254 -4 -255 -4z"/>
<path d="M7660 10570 l0 -280 138 0 c131 0 140 1 159 23 11 12 26 32 32 45 13
24 13 162 1 183 -15 23 -30 -3 -30 -51 0 -35 -4 -50 -17 -54 -25 -10 -33 13
-31 89 l3 70 36 -3 c46 -4 49 5 49 151 l0 107 -170 0 -170 0 0 -280z"/>
<path d="M7170 9768 c0 -112 -5 -220 -10 -240 -16 -57 -69 -94 -185 -129 -138
-43 -266 -95 -424 -173 -144 -71 -194 -81 -241 -49 -14 9 -89 80 -168 157 -78
78 -146 142 -150 143 -4 2 -113 -103 -242 -232 l-234 -236 140 -142 c176 -178
184 -188 184 -244 0 -35 -15 -73 -71 -184 l-70 -139 -164 0 c-95 0 -166 4
-170 10 -3 5 8 43 25 84 18 42 29 79 26 84 -8 13 -616 16 -616 4 0 -5 11 -17
25 -26 52 -34 20 -49 -42 -19 -33 15 -35 18 -29 55 6 38 4 41 -71 118 l-78 79
-68 4 c-90 7 -103 -5 -142 -125 -22 -69 -35 -94 -49 -96 -10 -2 -22 0 -28 6
-11 11 -14 189 -3 221 14 44 35 11 35 -56 0 -18 5 -33 10 -33 6 0 10 5 10 11
0 27 35 80 65 99 18 11 49 20 69 20 20 0 36 3 36 8 0 4 -153 159 -340 345
l-340 338 -73 -7 c-49 -4 -81 -3 -95 5 -33 18 -26 32 13 29 19 -1 37 1 40 4 3
3 -28 6 -68 7 -55 1 -88 -4 -126 -19 -65 -25 -102 -25 -174 0 -31 11 -78 20
-104 20 l-48 -1 38 -20 c20 -11 37 -24 37 -29 0 -6 -24 -10 -54 -10 l-53 0
-61 -153 c-76 -190 -104 -269 -96 -276 3 -3 87 -7 187 -9 100 -1 198 -7 218
-12 24 -7 66 -38 119 -88 45 -42 114 -107 153 -144 40 -37 75 -68 79 -68 4 0
9 8 12 18 9 25 65 82 82 82 20 0 18 -7 -21 -60 -19 -26 -35 -57 -35 -69 0 -36
82 -107 146 -126 31 -9 120 -44 198 -77 235 -101 258 -107 431 -109 63 0 117
-5 120 -9 3 -4 -230 -9 -518 -9 l-522 -1 -102 100 c-57 55 -106 100 -111 100
-5 0 -16 -16 -25 -35 -24 -51 -40 -45 -31 13 10 70 9 73 -16 102 l-20 23 0
-26 c0 -57 -25 -77 -34 -27 -3 17 -9 44 -12 60 -8 43 -18 37 -33 -20 -10 -40
-18 -51 -37 -56 -35 -9 -39 0 -28 57 12 56 -2 64 -20 11 -6 -17 -17 -37 -23
-44 -10 -10 -13 -2 -13 40 l0 52 -124 0 -124 0 -15 -67 c-9 -38 -25 -116 -38
-175 l-22 -108 -679 0 -678 0 0 -800 0 -800 679 0 679 0 6 -27 c3 -16 19 -97
37 -180 l33 -153 195 0 196 0 180 180 179 181 533 -1 c319 -1 531 -5 527 -11
-3 -5 -27 -9 -55 -9 -46 0 -49 -1 -49 -27 l0 -26 -24 22 c-27 26 -60 29 -154
18 -38 -5 -68 -4 -75 1 -7 6 -42 10 -78 10 -55 0 -73 -4 -102 -25 -21 -15 -57
-27 -98 -33 l-64 -9 -255 -258 c-140 -142 -270 -275 -288 -296 l-33 -38 -152
0 -152 0 -38 -80 c-56 -116 -42 -153 59 -163 l62 -5 21 51 c11 28 21 56 21 63
0 6 -18 20 -40 30 -30 14 -40 24 -40 42 0 12 2 23 5 23 2 0 25 -13 51 -29 48
-31 65 -31 101 2 25 22 56 17 47 -8 -4 -9 -19 -22 -35 -31 -16 -8 -29 -16 -29
-19 0 -2 25 -20 55 -41 51 -33 83 -69 72 -80 -5 -6 -68 30 -114 63 -34 26 -33
26 -63 -32 -18 -36 -49 -52 -112 -60 -27 -4 -48 -11 -48 -18 0 -7 19 -56 42
-109 l42 -98 296 0 295 -1 192 198 c185 190 191 199 178 220 -29 44 -11 71 26
37 15 -14 19 -13 39 16 12 17 36 36 54 44 17 7 94 75 171 151 234 230 308 297
340 311 23 9 107 13 307 15 152 1 282 5 289 9 9 6 5 25 -20 82 -19 40 -36 79
-38 86 -4 9 33 12 165 12 124 0 172 -3 180 -12 5 -7 39 -71 76 -142 68 -132
78 -174 56 -230 -5 -14 -75 -92 -155 -174 -80 -82 -145 -153 -145 -158 0 -5
103 -112 230 -238 l230 -230 122 121 c175 171 199 192 235 199 48 9 89 -3 200
-62 134 -70 265 -124 421 -174 196 -61 201 -71 202 -377 l0 -193 329 0 329 0
4 213 c6 303 -2 292 258 377 105 34 212 78 326 135 186 93 215 100 276 62 21
-12 101 -85 178 -161 l141 -139 236 236 236 236 -134 136 c-215 219 -221 234
-142 382 25 48 58 111 72 138 l26 50 173 3 c94 1 172 0 172 -2 0 -3 -16 -41
-35 -85 -19 -43 -35 -84 -35 -90 0 -6 94 -10 277 -11 153 0 294 -5 314 -10 25
-7 74 -46 165 -131 139 -131 176 -159 212 -159 18 0 22 5 22 34 0 18 7 39 15
46 15 12 20 1 27 -60 3 -21 10 -26 60 -35 64 -11 93 -30 64 -41 -9 -4 -40 -2
-67 3 -57 12 -66 4 -55 -43 7 -27 345 -374 365 -374 5 0 13 5 16 10 12 20 24
9 31 -27 8 -43 18 -53 55 -53 15 0 32 -7 39 -15 10 -13 9 -15 -9 -15 -33 0
-25 -20 30 -72 40 -38 58 -48 85 -48 28 0 34 4 35 23 4 203 5 205 35 254 32
52 84 93 118 93 17 0 12 -9 -31 -50 -69 -66 -89 -131 -84 -273 l1 -48 52 3
c48 3 51 5 53 31 1 36 32 65 86 81 82 23 91 19 114 -51 19 -60 21 -63 53 -63
18 0 55 7 82 16 48 16 49 17 86 102 20 48 61 150 90 227 45 119 50 141 37 146
-9 3 -84 7 -167 8 -83 2 -162 5 -176 6 -14 2 -34 4 -45 4 -25 2 -59 32 -281
252 -172 170 -182 178 -186 152 -2 -15 -1 -41 2 -57 4 -25 12 -31 53 -41 54
-14 62 -19 52 -36 -5 -8 -27 -10 -68 -6 -72 6 -88 22 -83 79 4 36 2 37 -20 32
-31 -8 -32 16 -4 71 l20 39 -83 83 -82 83 -227 0 -228 0 -1 -32 c0 -31 -16
-84 -19 -63 -3 27 -12 90 -14 92 -1 1 -32 3 -69 4 -37 1 -70 6 -73 10 -2 4
235 8 529 9 l533 1 179 -181 180 -180 198 0 c108 0 197 3 197 6 0 3 16 82 35
175 19 94 35 172 35 175 0 2 306 4 680 4 l680 0 0 800 0 800 -680 0 c-374 0
-680 2 -680 5 0 20 -53 261 -58 266 -15 13 -77 29 -113 29 -39 0 -50 12 -27
26 22 14 -31 22 -151 23 l-113 1 -93 -91 -92 -90 81 -81 c103 -102 85 -115
-26 -19 l-82 71 -70 -70 -71 -71 -526 1 -527 1 14 27 c8 16 16 80 20 152 l6
125 -49 -48 c-27 -26 -63 -51 -81 -56 -18 -6 -144 -10 -280 -11 -136 -1 -266
-3 -289 -3 l-41 -1 13 -31 c7 -16 25 -56 39 -88 14 -32 26 -60 26 -62 0 -3
-76 -5 -169 -5 -123 0 -171 3 -178 13 -6 6 -40 70 -77 141 -104 201 -108 185
128 425 l129 131 -236 237 -236 236 -133 -131 c-162 -160 -187 -181 -216 -188
-43 -12 -93 5 -260 85 -92 44 -230 100 -307 125 -263 86 -259 81 -263 379 l-4
217 -329 0 -329 0 0 -202z"/>
<path d="M6727 9913 c-31 -7 -93 -29 -137 -49 l-80 -37 0 -123 c0 -68 4 -124
9 -124 4 0 64 22 132 49 68 27 136 52 152 56 15 4 30 11 33 17 3 5 8 58 10
119 l5 110 -34 -3 c-19 -1 -59 -8 -90 -15z"/>
<path d="M10843 9137 c-183 -183 -333 -335 -333 -338 0 -3 21 -6 48 -8 46 -2
212 -24 262 -35 14 -3 39 -8 55 -12 57 -11 171 -45 253 -75 l84 -31 141 141
c161 159 200 191 236 191 25 0 25 1 -7 20 -35 22 -38 46 -6 43 10 -1 72 -15
136 -31 64 -16 149 -30 189 -31 l72 -2 -8 28 c-8 35 -114 311 -144 375 -12 27
-26 59 -31 73 l-10 25 -302 0 -303 0 -332 -333z"/>
<path d="M10402 8696 l-52 -57 -1 -82 c0 -45 -3 -117 -6 -160 l-5 -78 259 2
c142 2 269 6 283 10 14 4 19 7 13 8 -25 2 -12 25 60 98 102 106 144 138 161
124 11 -9 19 -6 35 15 12 15 21 30 21 34 0 16 -288 101 -395 116 -27 3 -57 8
-66 9 -8 2 -69 6 -135 10 l-119 7 -53 -56z"/>
<path d="M12010 8641 c0 -11 50 -24 58 -16 8 8 -19 25 -40 25 -10 0 -18 -4
-18 -9z"/>
<path d="M3996 8447 c4 -6 32 -38 63 -69 l54 -58 91 1 91 0 -65 33 c-105 52
-242 107 -234 93z"/>
<path d="M4115 6670 c-8 -13 25 -13 45 0 12 8 9 10 -12 10 -15 0 -30 -4 -33
-10z"/>
<path d="M5014 6179 c-12 -4 -25 -12 -28 -18 -4 -6 -18 -6 -37 -1 -29 9 -35 6
-88 -48 l-56 -57 52 -3 c30 -2 56 -9 64 -18 17 -20 8 -25 -50 -28 -27 -1 -52
-4 -54 -6 -3 -3 -8 -51 -11 -106 -7 -104 -3 -120 36 -138 11 -5 11 -7 0 -12
-29 -14 -41 -37 -46 -96 -17 -186 -17 -176 12 -190 36 -17 34 -32 -4 -36 l-30
-3 -18 -135 c-9 -73 -15 -138 -12 -143 3 -5 21 -12 40 -15 40 -8 67 -33 44
-41 -7 -3 -31 -4 -52 -3 -36 3 -40 0 -47 -26 -5 -16 -11 -54 -14 -85 -8 -80
-16 -142 -21 -174 -5 -24 -1 -29 25 -38 37 -13 41 -39 6 -39 -13 0 -28 -8 -33
-17 -5 -10 -13 -80 -17 -157 l-7 -139 44 7 c24 3 79 8 123 11 147 10 180 15
191 31 8 9 32 16 66 18 57 3 194 65 309 139 127 82 326 286 482 497 l26 36
-357 356 c-197 195 -370 373 -385 394 -31 46 -40 108 -21 153 7 17 37 56 65
87 l53 55 -115 -2 c-63 -1 -124 -5 -135 -10z"/>
<path d="M9785 6180 c-25 -10 -19 -12 89 -39 110 -27 123 -45 28 -38 -66 5
-73 4 -66 -11 47 -111 44 -145 -22 -217 -71 -77 -401 -409 -572 -576 -128
-125 -160 -151 -198 -161 l-44 -12 -1 -51 c-1 -88 -15 -147 -51 -219 l-20 -39
385 -386 c426 -427 473 -478 480 -524 3 -18 6 -140 6 -271 1 -132 3 -241 4
-242 4 -4 276 160 277 166 0 3 -33 7 -72 8 -40 2 -81 5 -90 8 -26 8 -22 39 10
76 61 71 95 148 85 188 -5 17 -11 19 -39 14 -26 -5 -34 -3 -34 8 0 24 22 38
60 38 44 0 60 -15 60 -56 0 -41 -22 -93 -69 -164 l-38 -56 61 -11 c34 -6 72
-14 86 -18 32 -8 80 27 80 58 0 28 32 77 62 93 13 8 44 13 70 14 39 0 55 7
105 44 32 25 78 62 101 83 l42 38 -45 118 c-44 116 -54 157 -36 157 15 0 28
-23 71 -132 24 -60 47 -108 53 -108 23 0 493 482 505 519 2 7 -13 11 -42 11
-55 0 -96 17 -96 40 0 16 42 70 118 150 18 19 35 47 39 62 6 29 3 45 -8 41
-25 -8 -59 -10 -63 -4 -9 14 34 51 59 51 37 0 56 -11 66 -37 14 -38 -13 -86
-93 -169 -39 -41 -69 -76 -67 -78 2 -2 32 -7 66 -10 71 -7 66 -11 152 103 128
168 277 389 268 397 -1 1 -33 5 -72 8 -38 4 -104 10 -145 15 -41 5 -150 9
-243 10 -193 2 -220 -5 -256 -69 -42 -75 -57 -260 -37 -452 5 -46 4 -58 -7
-58 -24 0 -32 19 -86 196 -49 163 -71 264 -58 264 9 0 36 -53 68 -135 23 -58
28 -65 29 -40 1 17 3 44 5 60 2 17 7 50 10 75 9 69 50 145 93 172 34 21 48 23
167 23 139 -1 424 -12 515 -21 l55 -5 32 61 32 60 -237 1 c-130 1 -241 1 -245
0 -5 -1 -36 3 -70 9 -34 5 -163 12 -287 14 -124 2 -233 7 -243 11 -44 18 19
25 237 25 l229 0 -119 120 -119 120 -6 -41 c-10 -71 -64 -97 -129 -64 -42 22
-37 29 15 22 33 -5 48 -3 60 10 20 19 13 59 -15 87 -24 25 -47 15 -65 -28 -14
-33 -32 -53 -40 -44 -8 7 -8 62 -1 148 l7 85 -203 201 c-282 279 -298 292
-309 271 -27 -47 -73 -41 -117 15 -22 26 -29 28 -85 27 -34 -1 -71 -5 -82 -9z"/>
<path d="M9985 6181 c-8 -15 35 -35 47 -23 6 6 7 15 4 21 -9 14 -43 14 -51 2z"/>
<path d="M10546 6165 c4 -8 11 -15 16 -15 6 0 5 6 -2 15 -7 8 -14 15 -16 15
-2 0 -1 -7 2 -15z"/>
<path d="M3038 6014 c-7 -7 21 -94 30 -94 11 0 42 60 42 81 0 15 -7 19 -33 19
-19 0 -36 -3 -39 -6z"/>
<path d="M4369 5620 c-211 -210 -394 -388 -406 -396 -24 -17 -95 -22 -371 -28
-101 -2 -185 -6 -188 -9 -11 -10 175 -304 295 -467 91 -125 198 -254 221 -268
27 -17 230 -35 544 -48 l163 -7 5 33 c3 18 5 89 4 157 l-1 125 -50 16 c-59 20
-57 37 3 38 24 1 48 6 53 11 12 12 35 138 43 241 7 71 6 72 -17 72 -37 0 -88
21 -84 34 3 7 25 10 59 9 l55 -3 12 98 c6 53 14 116 17 139 l5 41 -40 7 c-21
3 -47 13 -58 21 -26 20 -1 33 53 28 24 -2 45 -1 47 3 3 5 8 40 11 78 4 39 9
93 12 122 l6 51 -34 -7 c-38 -9 -78 -5 -91 8 -19 19 6 31 63 31 l58 0 4 118
c2 64 1 121 -2 125 -4 4 -180 -164 -391 -373z"/>
<path d="M10620 5589 c0 -27 3 -30 23 -23 32 9 32 12 12 34 -25 28 -35 25 -35
-11z"/>
<path d="M11485 5590 c-59 -23 -49 -60 17 -67 53 -6 62 3 47 46 -11 32 -26 37
-64 21z"/>
<path d="M6510 5145 c0 -151 -3 -290 -7 -307 -7 -38 -38 -78 -163 -207 -78
-81 -113 -132 -99 -145 4 -3 98 -11 194 -17 l30 -1 -30 -8 c-16 -4 -68 -8
-115 -9 l-85 -1 0 -59 c0 -33 -3 -63 -7 -66 -15 -16 -28 9 -28 56 0 101 -23
87 -316 -206 -258 -257 -366 -373 -359 -385 3 -5 14 -1 24 9 10 10 47 23 82
30 35 6 78 14 94 17 56 10 490 13 533 3 73 -17 47 -29 -65 -30 -267 -2 -532
-20 -600 -40 -38 -12 -45 -27 -32 -71 13 -47 12 -51 -17 -45 l-25 4 2 -191 c2
-275 -9 -247 118 -300 128 -54 281 -113 338 -131 40 -12 41 -12 46 11 2 13 5
101 6 195 2 114 7 183 15 203 7 17 151 169 320 338 292 291 307 307 296 330
-7 12 -19 31 -28 40 -16 20 -35 13 -85 -28 -54 -45 -64 -24 -15 31 31 36 31
36 15 71 -18 37 -10 43 27 19 21 -14 25 -13 59 12 39 31 47 48 47 110 l0 43
-59 -30 c-104 -53 -223 -87 -206 -60 4 6 52 33 108 61 56 28 106 54 110 58 10
10 -51 72 -110 112 -44 31 -57 59 -25 59 24 0 57 -23 126 -89 l58 -56 -5 110
c-4 94 -9 119 -33 170 -24 52 -28 75 -32 176 -7 176 26 319 73 319 19 0 19 -7
-1 -61 -39 -108 -46 -214 -23 -345 17 -97 22 -97 73 3 l45 91 -29 31 c-27 28
-40 61 -24 61 3 0 20 -12 36 -26 19 -16 34 -22 40 -16 19 19 45 148 47 228 l2
80 -58 18 c-32 10 -104 38 -160 62 -57 24 -107 44 -112 44 -6 0 -10 -108 -11
-275z"/>
<path d="M8400 5389 c-35 -16 -68 -35 -72 -42 -11 -15 -5 -65 21 -192 30 -148
48 -201 99 -297 70 -130 35 -133 -43 -3 -44 74 -78 182 -105 340 -12 66 -25
124 -30 129 -11 11 -110 -23 -117 -41 -3 -8 4 -24 16 -37 24 -26 27 -36 7 -36
-22 0 -26 -24 -26 -149 l0 -118 46 -49 c25 -27 62 -69 82 -93 l37 -44 3 -321
4 -321 291 -293 c161 -162 299 -301 308 -310 52 -54 56 -75 60 -277 1 -77 5
-154 8 -172 l6 -32 105 40 c58 21 167 65 243 96 l138 57 -2 160 c-1 87 -6 178
-10 202 -5 24 -10 90 -12 146 l-5 103 -362 365 c-470 474 -572 583 -587 622
-7 20 -12 94 -12 186 -1 143 -2 152 -20 152 -26 0 -51 10 -51 21 0 5 11 9 25
9 42 0 62 67 27 92 -26 18 -52 59 -52 80 0 27 13 22 32 -13 23 -39 38 -29 38
27 0 53 -3 53 -90 13z"/>
<path d="M8810 5098 l0 -164 49 -47 49 -47 15 47 c21 66 25 88 32 168 l6 70
-75 68 -76 68 0 -163z"/>
<path d="M6139 5211 c-51 -47 -114 -81 -150 -81 -29 0 -54 -25 -161 -160 -79
-100 -225 -246 -318 -319 -115 -90 -203 -141 -400 -229 -20 -9 -4 -10 75 -6
202 9 255 19 255 48 0 12 20 26 36 26 2 0 4 -14 4 -31 0 -29 2 -30 33 -25 17
2 68 7 112 11 l80 6 217 220 c190 192 245 255 249 286 1 5 5 18 10 31 13 34
11 85 -4 107 -19 29 -20 82 -2 118 8 16 13 32 11 34 -2 2 -23 -14 -47 -36z"/>
<path d="M7037 4671 l-36 -40 -1 -312 c-1 -244 -4 -318 -15 -338 -18 -34 -69
-89 -287 -308 -182 -183 -182 -183 -148 -185 81 -3 116 3 153 28 46 30 59 24
30 -14 -32 -44 -59 -52 -161 -51 l-94 2 -64 -64 -64 -64 1 -188 c0 -152 3
-190 16 -202 8 -8 18 -15 23 -15 4 0 59 -11 121 -24 218 -46 446 -77 665 -92
49 -3 106 -7 127 -9 l38 -3 -2 184 c-2 101 -4 184 -6 184 -1 0 -9 -16 -17 -35
-14 -33 -40 -54 -52 -42 -11 11 45 117 60 117 14 0 16 79 16 755 l0 755 -133
0 -134 0 -36 -39z"/>
<path d="M7660 3750 l0 -960 48 5 c26 2 83 6 127 10 44 3 91 7 105 10 14 2 55
7 92 10 37 3 77 8 90 10 13 2 73 11 134 20 94 13 175 29 377 72 l27 6 0 196 0
197 -155 152 c-117 115 -161 152 -180 152 -31 0 -33 -5 -37 -96 l-3 -70 50
-20 c118 -45 99 -184 -27 -190 -43 -2 -78 9 -78 25 0 5 27 12 59 16 73 8 100
31 85 73 -9 26 -25 35 -85 47 -35 7 -47 39 -52 153 l-4 92 28 0 c15 0 30 4 33
9 3 4 -44 59 -105 122 -61 63 -127 134 -147 158 l-37 44 -3 321 -3 321 -37 37
-37 38 -132 0 -133 0 0 -960z"/>
<path d="M5620 4404 c-8 -2 -40 -6 -72 -9 -49 -5 -57 -9 -62 -31 -8 -31 -21
-31 -42 1 -17 26 -15 26 -199 10 -27 -3 -79 -5 -114 -5 -63 0 -63 0 -57 -25 7
-26 -8 -65 -23 -65 -5 0 -12 18 -16 39 -4 22 -13 42 -22 45 -22 9 -321 2 -330
-7 -13 -13 -19 -128 -22 -379 l-2 -236 83 -59 c203 -144 434 -287 453 -279 10
3 13 62 14 261 1 141 6 266 11 278 11 29 33 52 213 237 224 230 224 230 187
224z"/>
<path d="M3975 4391 c-13 -23 324 -355 548 -540 93 -77 96 -75 97 49 1 47 3
169 6 271 l6 187 -39 4 c-21 3 -105 6 -186 7 -82 1 -156 4 -165 6 -9 1 -69 6
-132 10 -63 3 -118 9 -122 11 -3 2 -9 0 -13 -5z"/>
<path d="M6644 4219 c-3 -6 3 -21 15 -32 l21 -21 0 32 c0 32 -21 45 -36 21z"/>
<path d="M10253 3708 c-24 -11 -37 -34 -24 -42 4 -3 21 8 36 24 30 31 26 36
-12 18z"/>
</g>
</svg>
